<svg xmlns="http://www.w3.org/2000/svg" viewBox="0 0 400 300" fill="none" stroke="#16408f" stroke-linecap="round" stroke-linejoin="round">
  <!-- TB-25 slim sliding pictogram: elevation (top) and plan of the two tracks (bottom) -->
  <!-- elevation: outer frame -->
  <rect x="40" y="52" width="210" height="140" stroke-width="3"/>
  <!-- back panel and front panel, overlapping at the slim interlock -->
  <rect x="48" y="60" width="106" height="124" stroke-width="1.6"/>
  <rect x="136" y="60" width="106" height="124" stroke-width="2.2" fill="#ffffff" fill-opacity=".55"/>
  <path d="M145 60v124" stroke-width="4"/>
  <!-- glass reflections -->
  <path d="M62 150l26-26M62 164l40-40M176 150l26-26M176 164l40-40" stroke-width="1.2" opacity=".45"/>
  <!-- sliding arrows -->
  <path d="M70 100h46M108 93l8 7-8 7" stroke-width="2.4"/>
  <path d="M222 100h-46M184 93l-8 7 8 7" stroke-width="2.4"/>
  <!-- plan: frame and two tracks -->
  <rect x="40" y="220" width="210" height="30" stroke-width="1.4" stroke-dasharray="4 4"/>
  <path d="M48 229h106" stroke-width="5"/>
  <path d="M136 241h106" stroke-width="5"/>
  <text x="40" y="282" font-family="monospace" font-size="14" fill="#16408f" stroke="none">TB-25 · SLIM SLIDING</text>
</svg>
